<?xml version="1.0" encoding="iso-8859-1"?>
<!-- Generator: Adobe Illustrator 19.0.0, SVG Export Plug-In . SVG Version: 6.00 Build 0)  -->
<svg version="1.1" id="Layer_1" xmlns="http://www.w3.org/2000/svg" xmlns:xlink="http://www.w3.org/1999/xlink" x="0px" y="0px"
	 viewBox="0 0 505 505" style="enable-background:new 0 0 505 505;" xml:space="preserve">
<circle style="fill:#324A5E;" cx="252.5" cy="252.5" r="252.5"/>
<path style="fill:#FFFFFF;" d="M199.6,250.1H164v-95.3c0-48.8,39.7-88.5,88.5-88.5S341,106,341,154.8v94.1h-35.6v-94.1
	c0-29.2-23.7-52.9-52.9-52.9s-52.9,23.7-52.9,52.9V250.1z"/>
<path style="fill:#FFD05B;" d="M370.3,419.3H134.7c-2.8,0-5.1-2.3-5.1-5.1V223.1c0-2.8,2.3-5.1,5.1-5.1h235.6c2.8,0,5.1,2.3,5.1,5.1
	v191.1C375.5,417,373.2,419.3,370.3,419.3z"/>
<rect x="129.5" y="306.1" style="fill:#FF7058;" width="245.9" height="62.4"/>
<g>
</g>
<g>
</g>
<g>
</g>
<g>
</g>
<g>
</g>
<g>
</g>
<g>
</g>
<g>
</g>
<g>
</g>
<g>
</g>
<g>
</g>
<g>
</g>
<g>
</g>
<g>
</g>
<g>
</g>
</svg>
