<?xml version="1.0" encoding="iso-8859-1"?>
<!-- Generator: Adobe Illustrator 19.0.0, SVG Export Plug-In . SVG Version: 6.00 Build 0)  -->
<svg version="1.1" id="Layer_1" xmlns="http://www.w3.org/2000/svg" xmlns:xlink="http://www.w3.org/1999/xlink" x="0px" y="0px"
	 viewBox="0 0 505 505" style="enable-background:new 0 0 505 505;" xml:space="preserve">
<circle style="fill:#90DFAA;" cx="252.5" cy="252.5" r="252.5"/>
<path style="fill:#324A5E;" d="M411.6,373.2H93.4c-2.3,0-4.1-1.8-4.1-4.1V132.9c0-2.3,1.8-4.1,4.1-4.1h318.2c2.3,0,4.1,1.8,4.1,4.1
	v236.2C415.7,371.4,413.8,373.2,411.6,373.2z"/>
<g>
	<rect x="123.4" y="161.7" style="fill:#2B3B4E;" width="33.6" height="10.5"/>
	<rect x="168.3" y="161.7" style="fill:#2B3B4E;" width="33.6" height="10.5"/>
	<rect x="213.2" y="161.7" style="fill:#2B3B4E;" width="33.6" height="10.5"/>
	<rect x="258.1" y="161.7" style="fill:#2B3B4E;" width="33.6" height="10.5"/>
	<rect x="303" y="161.7" style="fill:#2B3B4E;" width="33.6" height="10.5"/>
	<rect x="347.9" y="161.7" style="fill:#2B3B4E;" width="33.6" height="10.5"/>
	<rect x="391.9" y="161.7" style="fill:#2B3B4E;" width="23.8" height="10.5"/>
	<rect x="89.3" y="161.7" style="fill:#2B3B4E;" width="23.8" height="10.5"/>
	<rect x="123.4" y="329.8" style="fill:#2B3B4E;" width="33.6" height="10.5"/>
	<rect x="168.3" y="329.8" style="fill:#2B3B4E;" width="33.6" height="10.5"/>
	<rect x="213.2" y="329.8" style="fill:#2B3B4E;" width="33.6" height="10.5"/>
	<rect x="258.1" y="329.8" style="fill:#2B3B4E;" width="33.6" height="10.5"/>
	<rect x="303" y="329.8" style="fill:#2B3B4E;" width="33.6" height="10.5"/>
	<rect x="347.9" y="329.8" style="fill:#2B3B4E;" width="33.6" height="10.5"/>
	<rect x="391.9" y="329.8" style="fill:#2B3B4E;" width="23.8" height="10.5"/>
	<rect x="89.3" y="329.8" style="fill:#2B3B4E;" width="23.8" height="10.5"/>
</g>
<path style="fill:#ACB3BA;" d="M343.1,288.5h72.6v-74.9h-72.6c-20.7,0-37.4,16.8-37.4,37.4l0,0C305.7,271.7,322.4,288.5,343.1,288.5
	z"/>
<circle style="fill:#CED5E0;" cx="342" cy="251" r="18.7"/>
<g>
</g>
<g>
</g>
<g>
</g>
<g>
</g>
<g>
</g>
<g>
</g>
<g>
</g>
<g>
</g>
<g>
</g>
<g>
</g>
<g>
</g>
<g>
</g>
<g>
</g>
<g>
</g>
<g>
</g>
</svg>
