<svg width="374" height="57" viewBox="0 0 374 57" fill="none" xmlns="http://www.w3.org/2000/svg">
<path d="M12.5403 43.55C9.75367 43.55 7.71867 42.9267 6.43533 41.68C5.18867 40.3967 4.56533 38.1783 4.56533 35.025V16.655H0.385332V14.455C1.04533 14.455 1.77867 14.3267 2.58533 14.07C3.392 13.7767 4.08867 13.3183 4.67533 12.695C5.29867 12.035 5.812 11.2283 6.21533 10.275C6.61867 9.32166 6.94867 8.14833 7.20533 6.755H9.73533V13.52H16.9403V16.655H9.73533V35.19C9.73533 37.06 10.1203 38.435 10.8903 39.315C11.6603 40.195 12.6687 40.635 13.9153 40.635C14.5753 40.635 15.1803 40.5983 15.7303 40.525C16.2803 40.4517 16.8487 40.36 17.4353 40.25V42.67C16.9587 42.89 16.2437 43.0917 15.2903 43.275C14.337 43.4583 13.4203 43.55 12.5403 43.55ZM20.4913 43V40.69H20.6563C21.9029 40.69 22.9663 40.47 23.8463 40.03C24.7263 39.5533 25.1663 38.4533 25.1663 36.73V19.57C25.1663 17.9567 24.7079 16.93 23.7913 16.49C22.9113 16.05 21.8663 15.83 20.6563 15.83H20.4913V13.52H28.9613L30.0063 18.965H30.2813C30.7579 17.865 31.2713 16.8567 31.8213 15.94C32.3713 15.0233 33.1046 14.3083 34.0213 13.795C34.9379 13.245 36.2029 12.97 37.8163 12.97C39.8329 12.97 41.3179 13.3183 42.2713 14.015C43.2613 14.7117 43.7563 15.7017 43.7563 16.985C43.7563 18.1217 43.3529 19.0567 42.5463 19.79C41.7763 20.5233 40.4746 20.89 38.6413 20.89C38.6413 19.3867 38.4213 18.305 37.9813 17.645C37.5413 16.9483 36.7896 16.6 35.7263 16.6C34.6996 16.6 33.8379 17.0033 33.1413 17.81C32.4446 18.6167 31.8946 19.6433 31.4913 20.89C31.0879 22.1367 30.7946 23.4383 30.6113 24.795C30.4279 26.115 30.3363 27.3067 30.3363 28.37V37.005C30.3363 38.6183 30.7763 39.645 31.6563 40.085C32.5729 40.4883 33.6363 40.69 34.8463 40.69H36.3863V43H20.4913ZM54.7657 43.55C52.3091 43.55 50.2741 42.835 48.6607 41.405C47.0474 39.975 46.2407 37.7567 46.2407 34.75C46.2407 31.8167 47.2674 29.6533 49.3207 28.26C51.4107 26.8667 54.5641 26.0967 58.7807 25.95L63.3457 25.785V22.485C63.3457 21.165 63.2357 20.01 63.0157 19.02C62.7957 17.9933 62.3191 17.1867 61.5857 16.6C60.8524 16.0133 59.7341 15.72 58.2307 15.72C56.8374 15.72 55.7741 15.9767 55.0407 16.49C54.3074 17.0033 53.8124 17.7183 53.5557 18.635C53.3357 19.515 53.2257 20.5417 53.2257 21.715C51.6857 21.715 50.5124 21.4583 49.7057 20.945C48.9357 20.395 48.5507 19.4967 48.5507 18.25C48.5507 16.9667 48.9907 15.94 49.8707 15.17C50.7874 14.4 51.9974 13.85 53.5007 13.52C55.0041 13.1533 56.6541 12.97 58.4507 12.97C61.8241 12.97 64.3357 13.685 65.9857 15.115C67.6724 16.545 68.5157 19.0017 68.5157 22.485V36.73C68.5157 38.27 68.7724 39.315 69.2857 39.865C69.7991 40.415 70.6791 40.69 71.9257 40.69H72.0907V43H64.6657L63.7857 38.27H63.3457C62.5757 39.2967 61.8241 40.2133 61.0907 41.02C60.3574 41.79 59.4957 42.4133 58.5057 42.89C57.5524 43.33 56.3057 43.55 54.7657 43.55ZM56.0307 40.14C58.2674 40.14 60.0457 39.4617 61.3657 38.105C62.6857 36.7117 63.3457 34.8417 63.3457 32.495V28.04L59.8257 28.205C56.7091 28.3517 54.5457 28.9933 53.3357 30.13C52.1624 31.23 51.5757 32.8617 51.5757 35.025C51.5757 38.435 53.0607 40.14 56.0307 40.14ZM90.0469 43.55C87.6269 43.55 85.4636 43.0367 83.5569 42.01C81.6869 40.9833 80.2019 39.37 79.1019 37.17C78.0386 34.9333 77.5069 32.0183 77.5069 28.425C77.5069 24.5017 78.0386 21.4217 79.1019 19.185C80.2019 16.9117 81.6686 15.3167 83.5019 14.4C85.3719 13.4467 87.4619 12.97 89.7719 12.97C91.3119 12.97 92.8153 13.1717 94.2819 13.575C95.7486 13.9783 96.9586 14.6017 97.9119 15.445C98.8653 16.2517 99.3419 17.2967 99.3419 18.58C99.3419 19.8267 98.9203 20.725 98.0769 21.275C97.2703 21.7883 96.0603 22.045 94.4469 22.045C94.4469 20.3217 94.1169 18.8367 93.4569 17.59C92.8336 16.3433 91.6053 15.72 89.7719 15.72C88.3786 15.72 87.1503 16.0867 86.0869 16.82C85.0603 17.5533 84.2536 18.8367 83.6669 20.67C83.1169 22.5033 82.8419 25.07 82.8419 28.37C82.8419 32.2567 83.4836 35.1717 84.7669 37.115C86.0869 39.0217 88.2136 39.975 91.1469 39.975C92.8703 39.975 94.3553 39.6267 95.6019 38.93C96.8853 38.1967 97.8386 37.2617 98.4619 36.125C99.0853 36.6383 99.3969 37.3533 99.3969 38.27C99.3969 39.1133 99.0486 39.9383 98.3519 40.745C97.6553 41.5517 96.6103 42.23 95.2169 42.78C93.8603 43.2933 92.1369 43.55 90.0469 43.55ZM102.542 43V40.69H102.982C104.229 40.69 105.292 40.47 106.172 40.03C107.052 39.5533 107.492 38.4533 107.492 36.73V7.25C107.492 5.63667 107.034 4.61 106.117 4.17C105.237 3.73 104.192 3.51 102.982 3.51H102.542V1.2H112.662V22.43C112.662 22.9067 112.644 23.53 112.607 24.3C112.607 25.07 112.589 25.84 112.552 26.61C112.516 27.38 112.479 28.04 112.442 28.59C112.442 29.1033 112.442 29.36 112.442 29.36L119.317 21.825C120.491 20.505 121.279 19.4967 121.682 18.8C122.122 18.0667 122.342 17.4433 122.342 16.93C122.342 16.4533 122.122 16.16 121.682 16.05C121.242 15.9033 120.564 15.83 119.647 15.83V13.52H131.802V15.83C130.556 15.83 129.309 16.2883 128.062 17.205C126.816 18.085 125.477 19.3317 124.047 20.945L120.197 25.29L127.512 36.18C128.466 37.6467 129.401 38.765 130.317 39.535C131.271 40.305 132.371 40.69 133.617 40.69H133.782V43H133.012C131.436 43 130.116 42.945 129.052 42.835C127.989 42.725 127.091 42.505 126.357 42.175C125.661 41.8083 124.982 41.2767 124.322 40.58C123.699 39.8467 123.002 38.875 122.232 37.665L116.732 29.03L112.662 32.055V37.005C112.662 38.6183 113.102 39.645 113.982 40.085C114.899 40.4883 115.962 40.69 117.172 40.69H117.337V43H102.542Z" fill="#2B70F6"/>
<path d="M134.715 56.2V53.89H135.155C136.402 53.89 137.465 53.6517 138.345 53.175C139.225 52.735 139.665 51.6533 139.665 49.93V19.57C139.665 17.9567 139.207 16.93 138.29 16.49C137.41 16.05 136.365 15.83 135.155 15.83H134.44V13.52H144.065L144.615 18.47H144.835C145.678 16.7833 146.76 15.445 148.08 14.455C149.4 13.465 151.123 12.97 153.25 12.97C156.88 12.97 159.648 14.1983 161.555 16.655C163.498 19.075 164.47 22.925 164.47 28.205C164.47 33.5217 163.498 37.4083 161.555 39.865C159.648 42.3217 156.88 43.55 153.25 43.55C151.123 43.55 149.382 43.11 148.025 42.23C146.705 41.3133 145.642 40.14 144.835 38.71H144.615C144.688 39.7733 144.743 40.91 144.78 42.12C144.817 43.2933 144.835 44.2283 144.835 44.925V50.205C144.835 51.8183 145.275 52.8267 146.155 53.23C147.072 53.67 148.135 53.89 149.345 53.89H149.51V56.2H134.715ZM152.37 40.03C154.79 40.03 156.513 39.0217 157.54 37.005C158.603 34.9517 159.135 32 159.135 28.15C159.135 24.2267 158.603 21.3117 157.54 19.405C156.513 17.4617 154.772 16.49 152.315 16.49C149.455 16.49 147.493 17.4617 146.43 19.405C145.367 21.3117 144.835 24.245 144.835 28.205C144.835 32.0183 145.367 34.9517 146.43 37.005C147.493 39.0217 149.473 40.03 152.37 40.03ZM183.294 43.55C179.334 43.55 176.218 42.285 173.944 39.755C171.671 37.225 170.534 33.375 170.534 28.205C170.534 23.0717 171.616 19.2583 173.779 16.765C175.979 14.235 179.206 12.97 183.459 12.97C187.419 12.97 190.536 14.235 192.809 16.765C195.083 19.2583 196.219 23.0717 196.219 28.205C196.219 33.375 195.119 37.225 192.919 39.755C190.756 42.285 187.548 43.55 183.294 43.55ZM183.404 40.69C186.154 40.69 188.079 39.645 189.179 37.555C190.316 35.4283 190.884 32.3117 190.884 28.205C190.884 24.0983 190.316 21.0183 189.179 18.965C188.043 16.9117 186.099 15.885 183.349 15.885C180.599 15.885 178.656 16.9117 177.519 18.965C176.419 21.0183 175.869 24.0983 175.869 28.205C175.869 32.3117 176.438 35.4283 177.574 37.555C178.711 39.645 180.654 40.69 183.404 40.69ZM201.067 43V40.69H201.232C202.479 40.69 203.542 40.47 204.422 40.03C205.302 39.5533 205.742 38.4533 205.742 36.73V19.57C205.742 17.9567 205.284 16.93 204.367 16.49C203.487 16.05 202.442 15.83 201.232 15.83H201.067V13.52H209.537L210.582 18.965H210.857C211.334 17.865 211.847 16.8567 212.397 15.94C212.947 15.0233 213.681 14.3083 214.597 13.795C215.514 13.245 216.779 12.97 218.392 12.97C220.409 12.97 221.894 13.3183 222.847 14.015C223.837 14.7117 224.332 15.7017 224.332 16.985C224.332 18.1217 223.929 19.0567 223.122 19.79C222.352 20.5233 221.051 20.89 219.217 20.89C219.217 19.3867 218.997 18.305 218.557 17.645C218.117 16.9483 217.366 16.6 216.302 16.6C215.276 16.6 214.414 17.0033 213.717 17.81C213.021 18.6167 212.471 19.6433 212.067 20.89C211.664 22.1367 211.371 23.4383 211.187 24.795C211.004 26.115 210.912 27.3067 210.912 28.37V37.005C210.912 38.6183 211.352 39.645 212.232 40.085C213.149 40.4883 214.212 40.69 215.422 40.69H216.962V43H201.067ZM238.341 43.55C235.554 43.55 233.519 42.9267 232.236 41.68C230.989 40.3967 230.366 38.1783 230.366 35.025V16.655H226.186V14.455C226.846 14.455 227.579 14.3267 228.386 14.07C229.193 13.7767 229.889 13.3183 230.476 12.695C231.099 12.035 231.613 11.2283 232.016 10.275C232.419 9.32166 232.749 8.14833 233.006 6.755H235.536V13.52H242.741V16.655H235.536V35.19C235.536 37.06 235.921 38.435 236.691 39.315C237.461 40.195 238.469 40.635 239.716 40.635C240.376 40.635 240.981 40.5983 241.531 40.525C242.081 40.4517 242.649 40.36 243.236 40.25V42.67C242.759 42.89 242.044 43.0917 241.091 43.275C240.138 43.4583 239.221 43.55 238.341 43.55ZM245.962 43V40.69H246.677C247.924 40.69 248.987 40.47 249.867 40.03C250.747 39.5533 251.187 38.4533 251.187 36.73V16.105H246.182V13.52H251.187V10.77C251.187 7.50667 252.049 5.01333 253.772 3.29C255.532 1.53 257.915 0.649998 260.922 0.649998C263.782 0.649998 265.78 1.01666 266.917 1.75C268.054 2.44667 268.622 3.36333 268.622 4.5C268.622 5.49 268.2 6.26 267.357 6.81C266.514 7.32333 265.432 7.58 264.112 7.58C264.112 6.48 263.855 5.47166 263.342 4.555C262.829 3.63833 261.875 3.18 260.482 3.18C258.905 3.18 257.824 3.785 257.237 4.995C256.65 6.205 256.357 7.965 256.357 10.275V13.52H264.112V16.105H256.357V36.73C256.357 38.4533 256.797 39.5533 257.677 40.03C258.557 40.47 259.62 40.69 260.867 40.69H262.957V43H245.962ZM280.565 43.55C276.605 43.55 273.488 42.285 271.215 39.755C268.941 37.225 267.805 33.375 267.805 28.205C267.805 23.0717 268.886 19.2583 271.05 16.765C273.25 14.235 276.476 12.97 280.73 12.97C284.69 12.97 287.806 14.235 290.08 16.765C292.353 19.2583 293.49 23.0717 293.49 28.205C293.49 33.375 292.39 37.225 290.19 39.755C288.026 42.285 284.818 43.55 280.565 43.55ZM280.675 40.69C283.425 40.69 285.35 39.645 286.45 37.555C287.586 35.4283 288.155 32.3117 288.155 28.205C288.155 24.0983 287.586 21.0183 286.45 18.965C285.313 16.9117 283.37 15.885 280.62 15.885C277.87 15.885 275.926 16.9117 274.79 18.965C273.69 21.0183 273.14 24.0983 273.14 28.205C273.14 32.3117 273.708 35.4283 274.845 37.555C275.981 39.645 277.925 40.69 280.675 40.69ZM297.238 43V40.69H297.953C299.2 40.69 300.263 40.47 301.143 40.03C302.023 39.5533 302.463 38.4533 302.463 36.73V7.25C302.463 5.63667 302.005 4.61 301.088 4.17C300.208 3.73 299.163 3.51 297.953 3.51H297.238V1.2H307.633V36.73C307.633 38.4533 308.073 39.5533 308.953 40.03C309.833 40.47 310.896 40.69 312.143 40.69H312.858V43H297.238ZM320.424 43.385C319.471 43.385 318.646 43.11 317.949 42.56C317.289 42.01 316.959 41.0383 316.959 39.645C316.959 38.215 317.289 37.2433 317.949 36.73C318.646 36.18 319.471 35.905 320.424 35.905C321.378 35.905 322.184 36.18 322.844 36.73C323.541 37.2433 323.889 38.215 323.889 39.645C323.889 41.0383 323.541 42.01 322.844 42.56C322.184 43.11 321.378 43.385 320.424 43.385ZM336.154 8.02C335.274 8.02 334.523 7.76333 333.899 7.25C333.313 6.73666 333.019 5.85667 333.019 4.61C333.019 3.32666 333.313 2.44666 333.899 1.97C334.523 1.45666 335.274 1.2 336.154 1.2C336.998 1.2 337.731 1.45666 338.354 1.97C338.978 2.44666 339.289 3.32666 339.289 4.61C339.289 5.85667 338.978 6.73666 338.354 7.25C337.731 7.76333 336.998 8.02 336.154 8.02ZM328.564 43V40.69H329.279C330.489 40.69 331.534 40.4883 332.414 40.085C333.331 39.645 333.789 38.6183 333.789 37.005V19.57C333.789 17.9567 333.331 16.93 332.414 16.49C331.534 16.05 330.489 15.83 329.279 15.83H329.114V13.52H338.959V36.73C338.959 38.4533 339.399 39.5533 340.279 40.03C341.159 40.47 342.223 40.69 343.469 40.69H344.184V43H328.564ZM360.702 43.55C356.742 43.55 353.625 42.285 351.352 39.755C349.078 37.225 347.942 33.375 347.942 28.205C347.942 23.0717 349.023 19.2583 351.187 16.765C353.387 14.235 356.613 12.97 360.867 12.97C364.827 12.97 367.943 14.235 370.217 16.765C372.49 19.2583 373.627 23.0717 373.627 28.205C373.627 33.375 372.527 37.225 370.327 39.755C368.163 42.285 364.955 43.55 360.702 43.55ZM360.812 40.69C363.562 40.69 365.487 39.645 366.587 37.555C367.723 35.4283 368.292 32.3117 368.292 28.205C368.292 24.0983 367.723 21.0183 366.587 18.965C365.45 16.9117 363.507 15.885 360.757 15.885C358.007 15.885 356.063 16.9117 354.927 18.965C353.827 21.0183 353.277 24.0983 353.277 28.205C353.277 32.3117 353.845 35.4283 354.982 37.555C356.118 39.645 358.062 40.69 360.812 40.69Z" fill="white"/>
</svg>
